<svg width="680" height="900" viewBox="0 0 680 900" fill="none" xmlns="http://www.w3.org/2000/svg">
<rect x="60" y="860" width="20" height="20" fill="black"/>
<rect x="40" y="860" width="20" height="20" fill="black"/>
<rect x="20" y="860" width="20" height="20" fill="black"/>
<rect x="240" y="860" width="20" height="20" fill="black"/>
<rect x="260" y="860" width="20" height="20" fill="black"/>
<rect x="280" y="860" width="20" height="20" fill="black"/>
<rect x="80" y="860" width="20" height="20" fill="black"/>
<rect x="100" y="860" width="20" height="20" fill="black"/>
<rect x="220" y="860" width="20" height="20" fill="black"/>
<rect x="200" y="860" width="20" height="20" fill="black"/>
<rect x="120" y="860" width="20" height="20" fill="black"/>
<rect x="60" y="340" width="20" height="20" fill="#606060"/>
<rect x="40" y="340" width="20" height="20" fill="#606060"/>
<rect x="20" y="340" width="20" height="20" fill="#606060"/>
<rect y="340" width="20" height="20" fill="black"/>
<rect x="240" y="340" width="20" height="20" fill="#4B4949"/>
<rect x="260" y="340" width="20" height="20" fill="#606060"/>
<rect x="300" y="340" width="20" height="20" fill="black"/>
<rect x="280" y="340" width="20" height="20" fill="#948D8D"/>
<rect x="80" y="340" width="20" height="20" fill="#343529"/>
<rect x="100" y="340" width="20" height="20" fill="#606060"/>
<rect x="220" y="340" width="20" height="20" fill="#4B4949"/>
<rect x="200" y="340" width="20" height="20" fill="#606060"/>
<rect x="180" y="340" width="20" height="20" fill="#343529"/>
<rect x="160" y="340" width="20" height="20" fill="#606060"/>
<rect x="140" y="340" width="20" height="20" fill="#606060"/>
<rect x="120" y="340" width="20" height="20" fill="#606060"/>
<rect x="60" y="320" width="20" height="20" fill="#606060"/>
<rect x="40" y="320" width="20" height="20" fill="#606060"/>
<rect x="20" y="320" width="20" height="20" fill="#948D8D"/>
<rect y="320" width="20" height="20" fill="black"/>
<rect x="240" y="320" width="20" height="20" fill="#606060"/>
<rect x="260" y="320" width="20" height="20" fill="black"/>
<rect x="280" y="320" width="20" height="20" fill="black"/>
<rect x="80" y="320" width="20" height="20" fill="#343529"/>
<rect x="100" y="320" width="20" height="20" fill="#606060"/>
<rect x="220" y="320" width="20" height="20" fill="#948D8D"/>
<rect x="200" y="320" width="20" height="20" fill="#606060"/>
<rect x="180" y="320" width="20" height="20" fill="#343529"/>
<rect x="160" y="320" width="20" height="20" fill="#606060"/>
<rect x="140" y="320" width="20" height="20" fill="#606060"/>
<rect x="120" y="320" width="20" height="20" fill="#606060"/>
<rect x="60" y="300" width="20" height="20" fill="#606060"/>
<rect x="40" y="300" width="20" height="20" fill="#606060"/>
<rect x="20" y="300" width="20" height="20" fill="black"/>
<rect x="240" y="300" width="20" height="20" fill="black"/>
<rect x="340" y="300" width="20" height="20" fill="black"/>
<rect x="80" y="300" width="20" height="20" fill="#343529"/>
<rect x="100" y="300" width="20" height="20" fill="#606060"/>
<rect x="220" y="300" width="20" height="20" fill="#948D8D"/>
<rect x="200" y="300" width="20" height="20" fill="#948D8D"/>
<rect x="180" y="300" width="20" height="20" fill="#343529"/>
<rect x="160" y="300" width="20" height="20" fill="#606060"/>
<rect x="140" y="300" width="20" height="20" fill="#606060"/>
<rect x="120" y="300" width="20" height="20" fill="#606060"/>
<rect x="60" y="280" width="20" height="20" fill="black"/>
<rect x="40" y="280" width="20" height="20" fill="black"/>
<rect x="340" y="280" width="20" height="20" fill="black"/>
<rect x="320" y="280" width="20" height="20" fill="#784325"/>
<rect x="300" y="280" width="20" height="20" fill="black"/>
<rect x="80" y="280" width="20" height="20" fill="black"/>
<rect x="100" y="280" width="20" height="20" fill="#948D8D"/>
<rect x="220" y="280" width="20" height="20" fill="black"/>
<rect x="200" y="280" width="20" height="20" fill="black"/>
<rect x="180" y="280" width="20" height="20" fill="black"/>
<rect x="160" y="280" width="20" height="20" fill="#948D8D"/>
<rect x="140" y="280" width="20" height="20" fill="#948D8D"/>
<rect x="120" y="280" width="20" height="20" fill="#948D8D"/>
<rect x="340" y="260" width="20" height="20" fill="black"/>
<rect x="320" y="260" width="20" height="20" fill="#784325"/>
<rect x="300" y="260" width="20" height="20" fill="#502506"/>
<rect x="280" y="260" width="20" height="20" fill="black"/>
<rect x="100" y="260" width="20" height="20" fill="black"/>
<rect x="80" y="260" width="20" height="20" fill="black"/>
<rect x="160" y="260" width="20" height="20" fill="black"/>
<rect x="140" y="260" width="20" height="20" fill="black"/>
<rect x="120" y="260" width="20" height="20" fill="black"/>
<rect x="60" y="240" width="20" height="20" fill="black"/>
<rect x="260" y="240" width="20" height="20" fill="black"/>
<rect x="340" y="240" width="20" height="20" fill="black"/>
<rect x="320" y="240" width="20" height="20" fill="#784325"/>
<rect x="300" y="240" width="20" height="20" fill="#502506"/>
<rect x="180" y="260" width="20" height="20" fill="black"/>
<rect x="280" y="240" width="20" height="20" fill="black"/>
<rect x="80" y="240" width="20" height="20" fill="#F8B27F"/>
<rect x="100" y="240" width="20" height="20" fill="#F8B27F"/>
<rect x="200" y="240" width="20" height="20" fill="black"/>
<rect x="180" y="240" width="20" height="20" fill="#A26746"/>
<rect x="160" y="240" width="20" height="20" fill="#F8B27F"/>
<rect x="140" y="240" width="20" height="20" fill="#F8B27F"/>
<rect x="120" y="240" width="20" height="20" fill="#F8B27F"/>
<rect x="60" y="220" width="20" height="20" fill="#F8B27F"/>
<rect x="20" y="220" width="20" height="20" fill="black"/>
<rect x="240" y="220" width="20" height="20" fill="black"/>
<rect x="260" y="220" width="20" height="20" fill="#784325"/>
<rect x="320" y="220" width="20" height="20" fill="black"/>
<rect x="300" y="220" width="20" height="20" fill="#784325"/>
<rect x="280" y="220" width="20" height="20" fill="#784325"/>
<rect x="80" y="220" width="20" height="20" fill="#F8B27F"/>
<rect x="100" y="220" width="20" height="20" fill="#C25555"/>
<rect x="220" y="220" width="20" height="20" fill="black"/>
<rect x="200" y="220" width="20" height="20" fill="#A26746"/>
<rect x="180" y="220" width="20" height="20" fill="#F8B27F"/>
<rect x="140" y="220" width="20" height="20" fill="#C25555"/>
<rect x="160" y="220" width="20" height="20" fill="#F8B27F"/>
<rect x="140" y="220" width="20" height="20" fill="#C25555"/>
<rect x="120" y="220" width="20" height="20" fill="#C25555"/>
<rect x="60" y="200" width="20" height="20" fill="#F8B27F"/>
<rect x="40" y="200" width="20" height="20" fill="black"/>
<rect x="40" y="220" width="20" height="20" fill="black"/>
<rect x="20" y="200" width="20" height="20" fill="#784325"/>
<rect y="200" width="20" height="20" fill="black"/>
<rect x="240" y="200" width="20" height="20" fill="black"/>
<rect x="260" y="200" width="20" height="20" fill="#502506"/>
<rect x="320" y="200" width="20" height="20" fill="black"/>
<rect x="300" y="200" width="20" height="20" fill="#784325"/>
<rect x="280" y="200" width="20" height="20" fill="#502506"/>
<rect x="80" y="200" width="20" height="20" fill="#F8B27F"/>
<rect x="100" y="200" width="20" height="20" fill="#F8B27F"/>
<rect x="220" y="200" width="20" height="20" fill="black"/>
<rect x="200" y="200" width="20" height="20" fill="#F8B27F"/>
<rect x="180" y="200" width="20" height="20" fill="#F8B27F"/>
<rect x="160" y="200" width="20" height="20" fill="#852525"/>
<rect x="140" y="200" width="20" height="20" fill="#F8B27F"/>
<rect x="120" y="200" width="20" height="20" fill="#F8B27F"/>
<rect x="60" y="180" width="20" height="20" fill="#E3898F"/>
<rect x="40" y="180" width="20" height="20" fill="#502506"/>
<rect x="20" y="180" width="20" height="20" fill="black"/>
<rect x="240" y="180" width="20" height="20" fill="#784325"/>
<rect x="260" y="180" width="20" height="20" fill="#502506"/>
<rect x="320" y="180" width="20" height="20" fill="black"/>
<rect x="300" y="180" width="20" height="20" fill="#C26A38"/>
<rect x="280" y="180" width="20" height="20" fill="#502506"/>
<rect x="80" y="180" width="20" height="20" fill="#E3898F"/>
<rect x="100" y="180" width="20" height="20" fill="#BC7D50"/>
<rect x="220" y="180" width="20" height="20" fill="#784325"/>
<rect x="200" y="180" width="20" height="20" fill="#F8B27F"/>
<rect x="180" y="180" width="20" height="20" fill="#E3898F"/>
<rect x="160" y="180" width="20" height="20" fill="#E3898F"/>
<rect x="140" y="180" width="20" height="20" fill="#F8B27F"/>
<rect x="120" y="180" width="20" height="20" fill="#F8B27F"/>
<rect x="60" y="160" width="20" height="20" fill="#F8B27F"/>
<rect x="40" y="160" width="20" height="20" fill="#502506"/>
<rect x="20" y="160" width="20" height="20" fill="black"/>
<rect x="240" y="160" width="20" height="20" fill="#502506"/>
<rect x="260" y="160" width="20" height="20" fill="#502506"/>
<rect x="300" y="160" width="20" height="20" fill="black"/>
<rect x="280" y="160" width="20" height="20" fill="#C26A38"/>
<rect x="80" y="160" width="20" height="20" fill="black"/>
<rect x="100" y="160" width="20" height="20" fill="#BC7D50"/>
<rect x="220" y="160" width="20" height="20" fill="#784325"/>
<rect x="200" y="160" width="20" height="20" fill="#F8B27F"/>
<rect x="180" y="160" width="20" height="20" fill="#F8B27F"/>
<rect x="160" y="160" width="20" height="20" fill="black"/>
<rect x="140" y="160" width="20" height="20" fill="#F8B27F"/>
<rect x="120" y="160" width="20" height="20" fill="#BC7D50"/>
<rect x="60" y="140" width="20" height="20" fill="#502506"/>
<rect x="40" y="140" width="20" height="20" fill="#502506"/>
<rect x="20" y="140" width="20" height="20" fill="black"/>
<rect x="240" y="140" width="20" height="20" fill="#502506"/>
<rect x="260" y="140" width="20" height="20" fill="#C26A38"/>
<rect x="300" y="140" width="20" height="20" fill="#1B1A1A"/>
<rect x="280" y="140" width="20" height="20" fill="#784325"/>
<rect x="80" y="140" width="20" height="20" fill="black"/>
<rect x="100" y="140" width="20" height="20" fill="#F8B27F"/>
<rect x="220" y="140" width="20" height="20" fill="#502506"/>
<rect x="200" y="140" width="20" height="20" fill="#A26746"/>
<rect x="180" y="140" width="20" height="20" fill="#F8B27F"/>
<rect x="160" y="140" width="20" height="20" fill="black"/>
<rect x="140" y="140" width="20" height="20" fill="#F8B27F"/>
<rect x="120" y="140" width="20" height="20" fill="#F8B27F"/>
<rect x="60" y="120" width="20" height="20" fill="#502506"/>
<rect x="40" y="120" width="20" height="20" fill="#502506"/>
<rect x="20" y="120" width="20" height="20" fill="black"/>
<rect x="240" y="120" width="20" height="20" fill="#502506"/>
<rect x="260" y="120" width="20" height="20" fill="#C26A38"/>
<rect x="320" y="120" width="20" height="20" fill="black"/>
<rect x="300" y="120" width="20" height="20" fill="#784325"/>
<rect x="280" y="120" width="20" height="20" fill="#784325"/>
<rect x="80" y="120" width="20" height="20" fill="black"/>
<rect x="100" y="120" width="20" height="20" fill="#F8B27F"/>
<rect x="220" y="120" width="20" height="20" fill="#502506"/>
<rect x="200" y="120" width="20" height="20" fill="#784325"/>
<rect x="180" y="120" width="20" height="20" fill="#A16941"/>
<rect x="160" y="120" width="20" height="20" fill="black"/>
<rect x="140" y="120" width="20" height="20" fill="#F8B27F"/>
<rect x="120" y="120" width="20" height="20" fill="#F8B27F"/>
<rect x="60" y="100" width="20" height="20" fill="#502506"/>
<rect x="40" y="100" width="20" height="20" fill="#784325"/>
<rect x="20" y="100" width="20" height="20" fill="black"/>
<rect x="240" y="100" width="20" height="20" fill="#502506"/>
<rect x="260" y="100" width="20" height="20" fill="#784325"/>
<rect x="320" y="100" width="20" height="20" fill="black"/>
<rect x="300" y="100" width="20" height="20" fill="#784325"/>
<rect x="280" y="100" width="20" height="20" fill="#C26A38"/>
<rect x="80" y="100" width="20" height="20" fill="#502506"/>
<rect x="100" y="100" width="20" height="20" fill="#F8B27F"/>
<rect x="220" y="100" width="20" height="20" fill="#6A1717"/>
<rect x="200" y="100" width="20" height="20" fill="#502506"/>
<rect x="180" y="100" width="20" height="20" fill="#502506"/>
<rect x="160" y="100" width="20" height="20" fill="#502506"/>
<rect x="140" y="100" width="20" height="20" fill="#F8B27F"/>
<rect x="120" y="100" width="20" height="20" fill="#F8B27F"/>
<rect x="60" y="80" width="20" height="20" fill="#502506"/>
<rect x="40" y="80" width="20" height="20" fill="#784325"/>
<rect x="20" y="80" width="20" height="20" fill="black"/>
<rect x="240" y="80" width="20" height="20" fill="#502506"/>
<rect x="260" y="80" width="20" height="20" fill="#784325"/>
<rect x="320" y="80" width="20" height="20" fill="black"/>
<rect x="300" y="80" width="20" height="20" fill="#C26A38"/>
<rect x="280" y="80" width="20" height="20" fill="#784325"/>
<rect x="80" y="80" width="20" height="20" fill="#502506"/>
<rect x="100" y="80" width="20" height="20" fill="#502506"/>
<rect x="220" y="80" width="20" height="20" fill="#852525"/>
<rect x="200" y="80" width="20" height="20" fill="#784325"/>
<rect x="180" y="80" width="20" height="20" fill="#784325"/>
<rect x="160" y="80" width="20" height="20" fill="#784325"/>
<rect x="140" y="80" width="20" height="20" fill="#502506"/>
<rect x="120" y="80" width="20" height="20" fill="#F8B27F"/>
<rect x="60" y="60" width="20" height="20" fill="#502506"/>
<rect x="40" y="60" width="20" height="20" fill="#502506"/>
<rect x="20" y="60" width="20" height="20" fill="black"/>
<rect x="240" y="60" width="20" height="20" fill="#502506"/>
<rect x="260" y="60" width="20" height="20" fill="#784325"/>
<rect x="300" y="60" width="20" height="20" fill="black"/>
<rect x="280" y="60" width="20" height="20" fill="#784325"/>
<rect x="80" y="60" width="20" height="20" fill="#502506"/>
<rect x="100" y="60" width="20" height="20" fill="#502506"/>
<rect x="220" y="60" width="20" height="20" fill="#852525"/>
<rect x="200" y="60" width="20" height="20" fill="#C26A38"/>
<rect x="180" y="60" width="20" height="20" fill="#784325"/>
<rect x="160" y="60" width="20" height="20" fill="#784325"/>
<rect x="140" y="60" width="20" height="20" fill="#784325"/>
<rect x="120" y="60" width="20" height="20" fill="#502506"/>
<rect x="60" y="40" width="20" height="20" fill="#C26A38"/>
<rect x="40" y="40" width="20" height="20" fill="black"/>
<rect x="240" y="40" width="20" height="20" fill="#C26A38"/>
<rect x="260" y="40" width="20" height="20" fill="#784325"/>
<rect x="300" y="40" width="20" height="20" fill="black"/>
<rect x="280" y="40" width="20" height="20" fill="#C26A38"/>
<rect x="80" y="40" width="20" height="20" fill="#784325"/>
<rect x="100" y="40" width="20" height="20" fill="#784325"/>
<rect x="220" y="40" width="20" height="20" fill="black"/>
<rect x="200" y="40" width="20" height="20" fill="#C26A38"/>
<rect x="180" y="40" width="20" height="20" fill="#C26A38"/>
<rect x="160" y="40" width="20" height="20" fill="#784325"/>
<rect x="140" y="40" width="20" height="20" fill="#784325"/>
<rect x="120" y="40" width="20" height="20" fill="#784325"/>
<rect x="60" y="20" width="20" height="20" fill="black"/>
<rect x="240" y="20" width="20" height="20" fill="black"/>
<rect x="260" y="20" width="20" height="20" fill="#C26A38"/>
<rect x="280" y="20" width="20" height="20" fill="black"/>
<rect x="80" y="20" width="20" height="20" fill="black"/>
<rect x="100" y="20" width="20" height="20" fill="#C26A38"/>
<rect x="200" y="20" width="20" height="20" fill="black"/>
<rect x="180" y="20" width="20" height="20" fill="black"/>
<rect x="160" y="20" width="20" height="20" fill="#C26A38"/>
<rect x="140" y="20" width="20" height="20" fill="#C26A38"/>
<rect x="120" y="20" width="20" height="20" fill="#C26A38"/>
<rect x="100" width="20" height="20" fill="black"/>
<rect x="160" width="20" height="20" fill="black"/>
<rect x="140" width="20" height="20" fill="black"/>
<rect x="120" width="20" height="20" fill="black"/>
<rect x="260" width="20" height="20" fill="black"/>
<rect x="60" y="360" width="20" height="20" fill="#606060"/>
<rect x="40" y="360" width="20" height="20" fill="#323232"/>
<rect x="20" y="360" width="20" height="20" fill="#606060"/>
<rect y="360" width="20" height="20" fill="black"/>
<rect x="240" y="360" width="20" height="20" fill="#B4B3B3"/>
<rect x="260" y="360" width="20" height="20" fill="#4B4949"/>
<rect x="320" y="360" width="20" height="20" fill="black"/>
<rect x="300" y="360" width="20" height="20" fill="#606060"/>
<rect x="280" y="360" width="20" height="20" fill="#606060"/>
<rect x="80" y="360" width="20" height="20" fill="#606060"/>
<rect x="100" y="360" width="20" height="20" fill="#606060"/>
<rect x="220" y="360" width="20" height="20" fill="#B4B3B3"/>
<rect x="200" y="360" width="20" height="20" fill="#B4B3B3"/>
<rect x="180" y="360" width="20" height="20" fill="#B4B3B3"/>
<rect x="160" y="360" width="20" height="20" fill="#B4B3B3"/>
<rect x="140" y="360" width="20" height="20" fill="#B4B3B3"/>
<rect x="120" y="360" width="20" height="20" fill="#606060"/>
<rect x="60" y="780" width="20" height="20" fill="black"/>
<rect x="240" y="780" width="20" height="20" fill="#164261"/>
<rect x="260" y="780" width="20" height="20" fill="black"/>
<rect x="80" y="780" width="20" height="20" fill="#164261"/>
<rect x="100" y="780" width="20" height="20" fill="#164261"/>
<rect x="220" y="780" width="20" height="20" fill="#164261"/>
<rect x="200" y="780" width="20" height="20" fill="black"/>
<rect x="140" y="780" width="20" height="20" fill="black"/>
<rect x="120" y="780" width="20" height="20" fill="#164261"/>
<rect x="60" y="760" width="20" height="20" fill="black"/>
<rect x="240" y="760" width="20" height="20" fill="#164261"/>
<rect x="260" y="760" width="20" height="20" fill="black"/>
<rect x="80" y="760" width="20" height="20" fill="#164261"/>
<rect x="100" y="760" width="20" height="20" fill="#164261"/>
<rect x="220" y="760" width="20" height="20" fill="#164261"/>
<rect x="200" y="760" width="20" height="20" fill="#164261"/>
<rect x="180" y="760" width="20" height="20" fill="black"/>
<rect x="140" y="760" width="20" height="20" fill="black"/>
<rect x="120" y="760" width="20" height="20" fill="#164261"/>
<rect x="60" y="740" width="20" height="20" fill="black"/>
<rect x="240" y="740" width="20" height="20" fill="#2B648D"/>
<rect x="260" y="740" width="20" height="20" fill="black"/>
<rect x="80" y="740" width="20" height="20" fill="#164261"/>
<rect x="100" y="740" width="20" height="20" fill="#164261"/>
<rect x="220" y="740" width="20" height="20" fill="#2B648D"/>
<rect x="200" y="740" width="20" height="20" fill="#164261"/>
<rect x="180" y="740" width="20" height="20" fill="black"/>
<rect x="140" y="740" width="20" height="20" fill="black"/>
<rect x="120" y="740" width="20" height="20" fill="#164261"/>
<rect x="60" y="840" width="20" height="20" fill="#502506"/>
<rect x="40" y="840" width="20" height="20" fill="#502506"/>
<rect x="20" y="840" width="20" height="20" fill="#502506"/>
<rect y="840" width="20" height="20" fill="black"/>
<rect x="240" y="840" width="20" height="20" fill="#502506"/>
<rect x="260" y="840" width="20" height="20" fill="#502506"/>
<rect x="280" y="840" width="20" height="20" fill="black"/>
<rect x="80" y="840" width="20" height="20" fill="#502506"/>
<rect x="100" y="840" width="20" height="20" fill="#502506"/>
<rect x="220" y="840" width="20" height="20" fill="#502506"/>
<rect x="200" y="840" width="20" height="20" fill="#502506"/>
<rect x="180" y="840" width="20" height="20" fill="black"/>
<rect y="860" width="20" height="20" fill="black"/>
<rect x="180" y="860" width="20" height="20" fill="black"/>
<rect x="180" y="780" width="20" height="20" fill="black"/>
<rect x="140" y="840" width="20" height="20" fill="black"/>
<rect x="120" y="840" width="20" height="20" fill="#502506"/>
<rect x="60" y="820" width="20" height="20" fill="#502506"/>
<rect x="40" y="820" width="20" height="20" fill="black"/>
<rect x="20" y="820" width="20" height="20" fill="black"/>
<rect x="240" y="820" width="20" height="20" fill="#164261"/>
<rect x="260" y="820" width="20" height="20" fill="black"/>
<rect x="80" y="820" width="20" height="20" fill="#502506"/>
<rect x="100" y="820" width="20" height="20" fill="#502506"/>
<rect x="220" y="820" width="20" height="20" fill="#164261"/>
<rect x="200" y="820" width="20" height="20" fill="black"/>
<rect x="140" y="820" width="20" height="20" fill="black"/>
<rect x="120" y="820" width="20" height="20" fill="#502506"/>
<rect x="60" y="800" width="20" height="20" fill="#164261"/>
<rect x="40" y="800" width="20" height="20" fill="black"/>
<rect x="240" y="800" width="20" height="20" fill="#164261"/>
<rect x="260" y="800" width="20" height="20" fill="black"/>
<rect x="80" y="800" width="20" height="20" fill="#164261"/>
<rect x="100" y="800" width="20" height="20" fill="#164261"/>
<rect x="220" y="800" width="20" height="20" fill="#164261"/>
<rect x="200" y="800" width="20" height="20" fill="black"/>
<rect x="140" y="800" width="20" height="20" fill="black"/>
<rect x="120" y="800" width="20" height="20" fill="#164261"/>
<rect x="60" y="720" width="20" height="20" fill="black"/>
<rect x="240" y="720" width="20" height="20" fill="#2B648D"/>
<rect x="260" y="720" width="20" height="20" fill="black"/>
<rect x="80" y="720" width="20" height="20" fill="#164261"/>
<rect x="100" y="720" width="20" height="20" fill="#164261"/>
<rect x="220" y="720" width="20" height="20" fill="#2B648D"/>
<rect x="200" y="720" width="20" height="20" fill="#164261"/>
<rect x="180" y="720" width="20" height="20" fill="black"/>
<rect x="140" y="720" width="20" height="20" fill="black"/>
<rect x="120" y="720" width="20" height="20" fill="#164261"/>
<rect x="60" y="700" width="20" height="20" fill="#164261"/>
<rect x="240" y="700" width="20" height="20" fill="#2B648D"/>
<rect x="260" y="700" width="20" height="20" fill="black"/>
<rect x="80" y="700" width="20" height="20" fill="#164261"/>
<rect x="100" y="700" width="20" height="20" fill="#2B648D"/>
<rect x="220" y="700" width="20" height="20" fill="#2B648D"/>
<rect x="200" y="700" width="20" height="20" fill="#164261"/>
<rect x="180" y="700" width="20" height="20" fill="black"/>
<rect x="140" y="700" width="20" height="20" fill="black"/>
<rect x="120" y="700" width="20" height="20" fill="#2B648D"/>
<rect x="60" y="680" width="20" height="20" fill="#164261"/>
<rect x="40" y="680" width="20" height="20" fill="black"/>
<rect x="40" y="700" width="20" height="20" fill="black"/>
<rect x="240" y="680" width="20" height="20" fill="#2B648D"/>
<rect x="260" y="680" width="20" height="20" fill="black"/>
<rect x="80" y="680" width="20" height="20" fill="#2B648D"/>
<rect x="100" y="680" width="20" height="20" fill="#2B648D"/>
<rect x="220" y="680" width="20" height="20" fill="#2B648D"/>
<rect x="200" y="680" width="20" height="20" fill="#2B648D"/>
<rect x="180" y="680" width="20" height="20" fill="black"/>
<rect x="120" y="680" width="20" height="20" fill="black"/>
<rect x="60" y="660" width="20" height="20" fill="#164261"/>
<rect x="40" y="660" width="20" height="20" fill="black"/>
<rect x="240" y="660" width="20" height="20" fill="black"/>
<rect x="80" y="660" width="20" height="20" fill="#2B648D"/>
<rect x="100" y="660" width="20" height="20" fill="#2B648D"/>
<rect x="220" y="660" width="20" height="20" fill="#2B648D"/>
<rect x="200" y="660" width="20" height="20" fill="#2B648D"/>
<rect x="180" y="660" width="20" height="20" fill="#164261"/>
<rect x="160" y="660" width="20" height="20" fill="black"/>
<rect x="120" y="660" width="20" height="20" fill="black"/>
<rect x="60" y="640" width="20" height="20" fill="#2B648D"/>
<rect x="40" y="640" width="20" height="20" fill="black"/>
<rect x="240" y="640" width="20" height="20" fill="black"/>
<rect x="80" y="640" width="20" height="20" fill="#2B648D"/>
<rect x="100" y="640" width="20" height="20" fill="#2B648D"/>
<rect x="220" y="640" width="20" height="20" fill="#2B648D"/>
<rect x="200" y="640" width="20" height="20" fill="#2B648D"/>
<rect x="180" y="640" width="20" height="20" fill="#164261"/>
<rect x="160" y="640" width="20" height="20" fill="black"/>
<rect x="120" y="640" width="20" height="20" fill="black"/>
<rect x="60" y="620" width="20" height="20" fill="#2B648D"/>
<rect x="40" y="620" width="20" height="20" fill="black"/>
<rect x="240" y="620" width="20" height="20" fill="black"/>
<rect x="80" y="620" width="20" height="20" fill="#2B648D"/>
<rect x="100" y="620" width="20" height="20" fill="#2B648D"/>
<rect x="220" y="620" width="20" height="20" fill="#2B648D"/>
<rect x="200" y="620" width="20" height="20" fill="#2B648D"/>
<rect x="180" y="620" width="20" height="20" fill="#2B648D"/>
<rect x="160" y="620" width="20" height="20" fill="black"/>
<rect x="120" y="620" width="20" height="20" fill="black"/>
<rect x="60" y="600" width="20" height="20" fill="#2B648D"/>
<rect x="40" y="600" width="20" height="20" fill="#2B648D"/>
<rect x="20" y="600" width="20" height="20" fill="black"/>
<rect x="240" y="600" width="20" height="20" fill="black"/>
<rect x="80" y="600" width="20" height="20" fill="#2B648D"/>
<rect x="100" y="600" width="20" height="20" fill="#2B648D"/>
<rect x="220" y="600" width="20" height="20" fill="#2B648D"/>
<rect x="200" y="600" width="20" height="20" fill="#2B648D"/>
<rect x="180" y="600" width="20" height="20" fill="#2B648D"/>
<rect x="160" y="600" width="20" height="20" fill="#2B648D"/>
<rect x="140" y="600" width="20" height="20" fill="black"/>
<rect x="120" y="600" width="20" height="20" fill="black"/>
<rect x="60" y="580" width="20" height="20" fill="#164261"/>
<rect x="40" y="580" width="20" height="20" fill="#164261"/>
<rect x="20" y="580" width="20" height="20" fill="black"/>
<rect x="240" y="580" width="20" height="20" fill="black"/>
<rect x="80" y="580" width="20" height="20" fill="#164261"/>
<rect x="100" y="580" width="20" height="20" fill="#2B648D"/>
<rect x="220" y="580" width="20" height="20" fill="#2B648D"/>
<rect x="200" y="580" width="20" height="20" fill="#2B648D"/>
<rect x="180" y="580" width="20" height="20" fill="#2B648D"/>
<rect x="160" y="580" width="20" height="20" fill="#2B648D"/>
<rect x="140" y="580" width="20" height="20" fill="black"/>
<rect x="120" y="580" width="20" height="20" fill="black"/>
<rect x="60" y="560" width="20" height="20" fill="#BC7D50"/>
<rect x="40" y="560" width="20" height="20" fill="#BC7D50"/>
<rect x="20" y="560" width="20" height="20" fill="#BC7D50"/>
<rect y="560" width="20" height="20" fill="black"/>
<rect x="240" y="560" width="20" height="20" fill="black"/>
<rect x="80" y="560" width="20" height="20" fill="#164261"/>
<rect x="100" y="560" width="20" height="20" fill="#2B648D"/>
<rect x="220" y="560" width="20" height="20" fill="#2B648D"/>
<rect x="200" y="560" width="20" height="20" fill="#2B648D"/>
<rect x="180" y="560" width="20" height="20" fill="#2B648D"/>
<rect x="160" y="560" width="20" height="20" fill="#2B648D"/>
<rect x="140" y="560" width="20" height="20" fill="#2B648D"/>
<rect x="120" y="560" width="20" height="20" fill="#2B648D"/>
<rect x="60" y="540" width="20" height="20" fill="#164261"/>
<rect x="40" y="540" width="20" height="20" fill="#F8B27F"/>
<rect x="20" y="540" width="20" height="20" fill="#F8B27F"/>
<rect y="540" width="20" height="20" fill="black"/>
<rect x="240" y="540" width="20" height="20" fill="black"/>
<rect x="80" y="540" width="20" height="20" fill="#164261"/>
<rect x="100" y="540" width="20" height="20" fill="#164261"/>
<rect x="220" y="540" width="20" height="20" fill="#164261"/>
<rect x="200" y="540" width="20" height="20" fill="#164261"/>
<rect x="180" y="540" width="20" height="20" fill="#164261"/>
<rect x="160" y="540" width="20" height="20" fill="#164261"/>
<rect x="140" y="540" width="20" height="20" fill="#164261"/>
<rect x="120" y="540" width="20" height="20" fill="#164261"/>
<rect x="60" y="520" width="20" height="20" fill="#323232"/>
<rect x="40" y="520" width="20" height="20" fill="#323232"/>
<rect x="20" y="520" width="20" height="20" fill="#4B4949"/>
<rect y="520" width="20" height="20" fill="black"/>
<rect x="240" y="520" width="20" height="20" fill="black"/>
<rect x="80" y="520" width="20" height="20" fill="#4B4949"/>
<rect x="100" y="520" width="20" height="20" fill="#4B4949"/>
<rect x="220" y="520" width="20" height="20" fill="#323232"/>
<rect x="200" y="520" width="20" height="20" fill="#323232"/>
<rect x="180" y="520" width="20" height="20" fill="#323232"/>
<rect x="160" y="520" width="20" height="20" fill="#4B4949"/>
<rect x="140" y="520" width="20" height="20" fill="#4B4949"/>
<rect x="120" y="520" width="20" height="20" fill="#4B4949"/>
<rect x="60" y="500" width="20" height="20" fill="#323232"/>
<rect x="40" y="500" width="20" height="20" fill="#323232"/>
<rect x="20" y="500" width="20" height="20" fill="#4B4949"/>
<rect y="500" width="20" height="20" fill="black"/>
<rect x="240" y="500" width="20" height="20" fill="black"/>
<rect x="260" y="500" width="20" height="20" fill="black"/>
<rect x="80" y="500" width="20" height="20" fill="#4B4949"/>
<rect x="100" y="500" width="20" height="20" fill="#4B4949"/>
<rect x="220" y="500" width="20" height="20" fill="#F8B27F"/>
<rect x="200" y="500" width="20" height="20" fill="#F8B27F"/>
<rect x="180" y="500" width="20" height="20" fill="#BC7D50"/>
<rect x="160" y="500" width="20" height="20" fill="#323232"/>
<rect x="140" y="500" width="20" height="20" fill="#4B4949"/>
<rect x="120" y="500" width="20" height="20" fill="#4B4949"/>
<rect x="60" y="480" width="20" height="20" fill="#4B4949"/>
<rect x="40" y="480" width="20" height="20" fill="#323232"/>
<rect x="20" y="480" width="20" height="20" fill="#4B4949"/>
<rect y="480" width="20" height="20" fill="black"/>
<rect x="240" y="480" width="20" height="20" fill="#606060"/>
<rect x="260" y="480" width="20" height="20" fill="#606060"/>
<rect x="280" y="480" width="20" height="20" fill="black"/>
<rect x="80" y="480" width="20" height="20" fill="#4B4949"/>
<rect x="100" y="480" width="20" height="20" fill="#4B4949"/>
<rect x="220" y="480" width="20" height="20" fill="#BC7D50"/>
<rect x="200" y="480" width="20" height="20" fill="#BC7D50"/>
<rect x="180" y="480" width="20" height="20" fill="#BC7D50"/>
<rect x="160" y="480" width="20" height="20" fill="#BC7D50"/>
<rect x="140" y="480" width="20" height="20" fill="#323232"/>
<rect x="120" y="480" width="20" height="20" fill="#4B4949"/>
<rect x="60" y="460" width="20" height="20" fill="#4B4949"/>
<rect x="40" y="460" width="20" height="20" fill="#323232"/>
<rect x="20" y="460" width="20" height="20" fill="#4B4949"/>
<rect y="460" width="20" height="20" fill="black"/>
<rect x="240" y="460" width="20" height="20" fill="#B4B3B3"/>
<rect x="260" y="460" width="20" height="20" fill="#606060"/>
<rect x="300" y="460" width="20" height="20" fill="black"/>
<rect x="280" y="460" width="20" height="20" fill="black"/>
<rect x="80" y="460" width="20" height="20" fill="#4B4949"/>
<rect x="100" y="460" width="20" height="20" fill="#4B4949"/>
<rect x="220" y="460" width="20" height="20" fill="#B4B3B3"/>
<rect x="200" y="460" width="20" height="20" fill="#B4B3B3"/>
<rect x="180" y="460" width="20" height="20" fill="#B4B3B3"/>
<rect x="160" y="460" width="20" height="20" fill="#B4B3B3"/>
<rect x="140" y="460" width="20" height="20" fill="#B4B3B3"/>
<rect x="120" y="460" width="20" height="20" fill="#4B4949"/>
<rect x="60" y="440" width="20" height="20" fill="#4B4949"/>
<rect x="40" y="440" width="20" height="20" fill="#323232"/>
<rect x="20" y="440" width="20" height="20" fill="#4B4949"/>
<rect y="440" width="20" height="20" fill="black"/>
<rect x="240" y="440" width="20" height="20" fill="#B4B3B3"/>
<rect x="260" y="440" width="20" height="20" fill="#4B4949"/>
<rect x="320" y="440" width="20" height="20" fill="black"/>
<rect x="300" y="440" width="20" height="20" fill="#4B4949"/>
<rect x="280" y="440" width="20" height="20" fill="#606060"/>
<rect x="80" y="440" width="20" height="20" fill="#4B4949"/>
<rect x="100" y="440" width="20" height="20" fill="#4B4949"/>
<rect x="220" y="440" width="20" height="20" fill="#B4B3B3"/>
<rect x="200" y="440" width="20" height="20" fill="#B4B3B3"/>
<rect x="180" y="440" width="20" height="20" fill="#B4B3B3"/>
<rect x="160" y="440" width="20" height="20" fill="#B4B3B3"/>
<rect x="140" y="440" width="20" height="20" fill="#B4B3B3"/>
<rect x="120" y="440" width="20" height="20" fill="#4B4949"/>
<rect x="60" y="420" width="20" height="20" fill="#4B4949"/>
<rect x="40" y="420" width="20" height="20" fill="#323232"/>
<rect x="20" y="420" width="20" height="20" fill="#606060"/>
<rect y="420" width="20" height="20" fill="black"/>
<rect x="240" y="420" width="20" height="20" fill="#B4B3B3"/>
<rect x="260" y="420" width="20" height="20" fill="#4B4949"/>
<rect x="320" y="420" width="20" height="20" fill="black"/>
<rect x="300" y="420" width="20" height="20" fill="#4B4949"/>
<rect x="280" y="420" width="20" height="20" fill="#606060"/>
<rect x="80" y="420" width="20" height="20" fill="#4B4949"/>
<rect x="100" y="420" width="20" height="20" fill="#4B4949"/>
<rect x="220" y="420" width="20" height="20" fill="white"/>
<rect x="200" y="420" width="20" height="20" fill="white"/>
<rect x="180" y="420" width="20" height="20" fill="#B4B3B3"/>
<rect x="160" y="420" width="20" height="20" fill="#B4B3B3"/>
<rect x="140" y="420" width="20" height="20" fill="#B4B3B3"/>
<rect x="120" y="420" width="20" height="20" fill="#4B4949"/>
<rect x="60" y="400" width="20" height="20" fill="#4B4949"/>
<rect x="40" y="400" width="20" height="20" fill="#323232"/>
<rect x="20" y="400" width="20" height="20" fill="#606060"/>
<rect y="400" width="20" height="20" fill="black"/>
<rect x="240" y="400" width="20" height="20" fill="#B4B3B3"/>
<rect x="260" y="400" width="20" height="20" fill="#4B4949"/>
<rect x="320" y="400" width="20" height="20" fill="black"/>
<rect x="300" y="400" width="20" height="20" fill="#4B4949"/>
<rect x="280" y="400" width="20" height="20" fill="#606060"/>
<rect x="80" y="400" width="20" height="20" fill="#606060"/>
<rect x="100" y="400" width="20" height="20" fill="#606060"/>
<rect x="220" y="400" width="20" height="20" fill="white"/>
<rect x="200" y="400" width="20" height="20" fill="white"/>
<rect x="180" y="400" width="20" height="20" fill="#B4B3B3"/>
<rect x="160" y="400" width="20" height="20" fill="#B4B3B3"/>
<rect x="140" y="400" width="20" height="20" fill="#B4B3B3"/>
<rect x="120" y="400" width="20" height="20" fill="#606060"/>
<rect x="60" y="380" width="20" height="20" fill="#4B4949"/>
<rect x="40" y="380" width="20" height="20" fill="#323232"/>
<rect x="20" y="380" width="20" height="20" fill="#606060"/>
<rect y="380" width="20" height="20" fill="black"/>
<rect x="240" y="380" width="20" height="20" fill="white"/>
<rect x="440" y="860" width="20" height="20" fill="black"/>
<rect x="400" y="860" width="20" height="20" fill="black"/>
<rect x="420" y="860" width="20" height="20" fill="black"/>
<rect x="380" y="860" width="20" height="20" fill="black"/>
<rect x="520" y="880" width="20" height="20" fill="black"/>
<rect x="480" y="880" width="20" height="20" fill="black"/>
<rect x="500" y="880" width="20" height="20" fill="black"/>
<rect x="460" y="880" width="20" height="20" fill="black"/>
<rect x="520" y="860" width="20" height="20" fill="black"/>
<rect x="480" y="860" width="20" height="20" fill="black"/>
<rect x="500" y="860" width="20" height="20" fill="black"/>
<rect x="460" y="860" width="20" height="20" fill="black"/>
<rect x="360" y="840" width="20" height="20" fill="black"/>
<rect x="660" y="860" width="20" height="20" fill="black"/>
<rect x="640" y="880" width="20" height="20" fill="black"/>
<rect x="620" y="880" width="20" height="20" fill="black"/>
<rect x="600" y="860" width="20" height="20" fill="black"/>
<rect x="580" y="840" width="20" height="20" fill="black"/>
<rect x="560" y="840" width="20" height="20" fill="black"/>
<rect x="540" y="840" width="20" height="20" fill="black"/>
<rect x="340" y="820" width="20" height="20" fill="black"/>
<rect x="320" y="800" width="20" height="20" fill="black"/>
<rect x="300" y="780" width="20" height="20" fill="black"/>
<rect x="280" y="760" width="20" height="20" fill="black"/>
<rect x="360" y="620" width="20" height="20" fill="black"/>
<rect x="360" y="640" width="20" height="20" fill="black"/>
<rect x="360" y="660" width="20" height="20" fill="black"/>
<rect x="340" y="680" width="20" height="20" fill="black"/>
<rect x="320" y="700" width="20" height="20" fill="black"/>
<rect x="300" y="720" width="20" height="20" fill="black"/>
<rect x="280" y="740" width="20" height="20" fill="black"/>
<rect x="300" y="560" width="20" height="20" fill="black"/>
<rect x="320" y="580" width="20" height="20" fill="black"/>
<rect x="340" y="600" width="20" height="20" fill="black"/>
<rect x="300" y="540" width="20" height="20" fill="black"/>
<rect x="320" y="500" width="20" height="20" fill="black"/>
<rect x="300" y="520" width="20" height="20" fill="black"/>
<rect x="300" y="480" width="20" height="20" fill="black"/>
<rect x="260" y="380" width="20" height="20" fill="#4B4949"/>
<rect x="320" y="380" width="20" height="20" fill="black"/>
<rect x="300" y="380" width="20" height="20" fill="#606060"/>
<rect x="280" y="380" width="20" height="20" fill="#606060"/>
<rect x="80" y="380" width="20" height="20" fill="#606060"/>
<rect x="100" y="380" width="20" height="20" fill="#606060"/>
<rect x="220" y="380" width="20" height="20" fill="#B4B3B3"/>
<rect x="200" y="380" width="20" height="20" fill="#B4B3B3"/>
<rect x="180" y="380" width="20" height="20" fill="#B4B3B3"/>
<rect x="160" y="380" width="20" height="20" fill="#B4B3B3"/>
<rect x="140" y="380" width="20" height="20" fill="#B4B3B3"/>
<rect x="120" y="380" width="20" height="20" fill="#606060"/>
</svg>
